<svg width="28" height="26" viewBox="0 0 28 26" fill="none" xmlns="http://www.w3.org/2000/svg">
    <path d="M24.3131 4.37839C23.7173 3.78223 23.0098 3.30931 22.2311 2.98665C21.4524 2.664 20.6177 2.49792 19.7748 2.49792C18.9319 2.49792 18.0973 2.664 17.3186 2.98665C16.5399 3.30931 15.8324 3.78223 15.2365 4.37839L13.9998 5.61505L12.7631 4.37839C11.5595 3.17475 9.92702 2.49855 8.22481 2.49855C6.52261 2.49855 4.89012 3.17475 3.68648 4.37839C2.48284 5.58203 1.80664 7.21452 1.80664 8.91672C1.80664 10.6189 2.48284 12.2514 3.68648 13.4551L13.9998 23.7684L24.3131 13.4551C24.9093 12.8592 25.3822 12.1517 25.7049 11.373C26.0275 10.5943 26.1936 9.75962 26.1936 8.91672C26.1936 8.07382 26.0275 7.23918 25.7049 6.46047C25.3822 5.68177 24.9093 4.97427 24.3131 4.37839Z"
          stroke="#1E1E1E" stroke-width="4" stroke-linecap="round" stroke-linejoin="round"/>
</svg>
