<svg width="28" height="28" viewBox="0 0 28 28" fill="none" xmlns="http://www.w3.org/2000/svg">
    <path d="M1.1665 1.16663H5.83317L8.95984 16.7883C9.06652 17.3254 9.35873 17.8079 9.78531 18.1513C10.2119 18.4947 10.7457 18.6771 11.2932 18.6666H22.6332C23.1807 18.6771 23.7145 18.4947 24.141 18.1513C24.5676 17.8079 24.8598 17.3254 24.9665 16.7883L26.8332 6.99996H6.99984M11.6665 24.5C11.6665 25.1443 11.1442 25.6666 10.4998 25.6666C9.85551 25.6666 9.33317 25.1443 9.33317 24.5C9.33317 23.8556 9.85551 23.3333 10.4998 23.3333C11.1442 23.3333 11.6665 23.8556 11.6665 24.5ZM24.4998 24.5C24.4998 25.1443 23.9775 25.6666 23.3332 25.6666C22.6888 25.6666 22.1665 25.1443 22.1665 24.5C22.1665 23.8556 22.6888 23.3333 23.3332 23.3333C23.9775 23.3333 24.4998 23.8556 24.4998 24.5Z"
          stroke="#1E1E1E" stroke-width="4" stroke-linecap="round" stroke-linejoin="round"/>
</svg>
